<svg xmlns="http://www.w3.org/2000/svg" xmlns:xlink="http://www.w3.org/1999/xlink" contentStyleType="text/css" data-diagram-type="CLASS" height="1412px" preserveAspectRatio="none" style="width:878px;height:1412px;background:#FFFFFF;" version="1.1" viewBox="0 0 878 1412" width="878px" zoomAndPan="magnify"><defs/><g><!--class User--><g class="entity" data-entity="User" data-source-line="1" data-uid="ent0002" id="entity_User"><rect fill="#F1F1F1" height="308.75" rx="2.5" ry="2.5" style="stroke:#181818;stroke-width:0.5;" width="299.8271" x="103.95" y="1096.95"/><ellipse cx="233.6585" cy="1112.95" fill="#ADD1B2" rx="11" ry="11" style="stroke:#181818;stroke-width:1;"/><path d="M236.6272,1118.5906 Q236.0491,1118.8875 235.4085,1119.0281 Q234.7679,1119.1844 234.0647,1119.1844 Q231.5647,1119.1844 230.2366,1117.5438 Q228.9241,1115.8875 228.9241,1112.7625 Q228.9241,1109.6375 230.2366,1107.9813 Q231.5647,1106.325 234.0647,1106.325 Q234.7679,1106.325 235.4085,1106.4813 Q236.0647,1106.6375 236.6272,1106.9344 L236.6272,1109.6531 Q236.0022,1109.075 235.4085,1108.8094 Q234.8147,1108.5281 234.1897,1108.5281 Q232.846,1108.5281 232.1585,1109.6063 Q231.471,1110.6688 231.471,1112.7625 Q231.471,1114.8563 232.1585,1115.9344 Q232.846,1116.9969 234.1897,1116.9969 Q234.8147,1116.9969 235.4085,1116.7313 Q236.0022,1116.45 236.6272,1115.8719 L236.6272,1118.5906 Z " fill="#000000"/><text fill="#000000" font-family="sans-serif" font-size="14" lengthAdjust="spacing" textLength="31.9102" x="254.1585" y="1117.7967">User</text><line style="stroke:#181818;stroke-width:0.5;" x1="104.95" x2="402.7771" y1="1128.95" y2="1128.95"/><rect fill="none" height="6" style="stroke:#C82930;stroke-width:1;" width="6" x="111.95" y="1139.5984"/><text fill="#000000" font-family="sans-serif" font-size="14" lengthAdjust="spacing" textLength="35.4785" x="123.95" y="1145.9451">int id</text><rect fill="none" height="6" style="stroke:#C82930;stroke-width:1;" width="6" x="111.95" y="1155.8953"/><text fill="#000000" font-family="sans-serif" font-size="14" lengthAdjust="spacing" textLength="84.3418" x="123.95" y="1162.242">string name</text><rect fill="none" height="6" style="stroke:#C82930;stroke-width:1;" width="6" x="111.95" y="1172.1922"/><text fill="#000000" font-family="sans-serif" font-size="14" lengthAdjust="spacing" textLength="111.3506" x="123.95" y="1178.5389">string password</text><rect fill="none" height="6" style="stroke:#C82930;stroke-width:1;" width="6" x="111.95" y="1188.4891"/><text fill="#000000" font-family="sans-serif" font-size="14" lengthAdjust="spacing" textLength="114.8779" x="123.95" y="1194.8357">string username</text><rect fill="none" height="6" style="stroke:#C82930;stroke-width:1;" width="6" x="111.95" y="1204.7859"/><text fill="#000000" font-family="sans-serif" font-size="14" lengthAdjust="spacing" textLength="83.248" x="123.95" y="1211.1326">string email</text><rect fill="none" height="6" style="stroke:#C82930;stroke-width:1;" width="6" x="111.95" y="1221.0828"/><text fill="#000000" font-family="sans-serif" font-size="14" lengthAdjust="spacing" textLength="234.0557" x="123.95" y="1227.4295">bool allow_anonymous_questions</text><rect fill="none" height="6" style="stroke:#C82930;stroke-width:1;" width="6" x="111.95" y="1237.3797"/><text fill="#000000" font-family="sans-serif" font-size="14" lengthAdjust="spacing" textLength="273.8271" x="123.95" y="1243.7264">enum Role { ADMIN, REGULAR_USER }</text><line style="stroke:#181818;stroke-width:0.5;" x1="104.95" x2="402.7771" y1="1251.0281" y2="1251.0281"/><ellipse cx="114.95" cy="1264.6766" fill="#84BE84" rx="3" ry="3" style="stroke:#038048;stroke-width:1;"/><text fill="#000000" font-family="sans-serif" font-size="14" lengthAdjust="spacing" textLength="69.6309" x="123.95" y="1268.0232">getId() int</text><ellipse cx="114.95" cy="1280.9734" fill="#84BE84" rx="3" ry="3" style="stroke:#038048;stroke-width:1;"/><text fill="#000000" font-family="sans-serif" font-size="14" lengthAdjust="spacing" textLength="119.8545" x="123.95" y="1284.3201">getName() string</text><ellipse cx="114.95" cy="1297.2703" fill="#84BE84" rx="3" ry="3" style="stroke:#038048;stroke-width:1;"/><text fill="#000000" font-family="sans-serif" font-size="14" lengthAdjust="spacing" textLength="150.165" x="123.95" y="1300.617">getUsername() string</text><ellipse cx="114.95" cy="1313.5672" fill="#84BE84" rx="3" ry="3" style="stroke:#038048;stroke-width:1;"/><text fill="#000000" font-family="sans-serif" font-size="14" lengthAdjust="spacing" textLength="117.3936" x="123.95" y="1316.9139">getEmail() string</text><ellipse cx="114.95" cy="1329.8641" fill="#84BE84" rx="3" ry="3" style="stroke:#038048;stroke-width:1;"/><text fill="#000000" font-family="sans-serif" font-size="14" lengthAdjust="spacing" textLength="258.0977" x="123.95" y="1333.2107">getAllowAnonymousQuestions() bool</text><ellipse cx="114.95" cy="1346.1609" fill="#84BE84" rx="3" ry="3" style="stroke:#038048;stroke-width:1;"/><text fill="#000000" font-family="sans-serif" font-size="14" lengthAdjust="spacing" textLength="99.9551" x="123.95" y="1349.5076">getRole() Role</text><ellipse cx="114.95" cy="1362.4578" fill="#84BE84" rx="3" ry="3" style="stroke:#038048;stroke-width:1;"/><text fill="#000000" font-family="sans-serif" font-size="14" lengthAdjust="spacing" textLength="252.0547" x="123.95" y="1365.8045">setAllowAnonymousQuestions(bool)</text><ellipse cx="114.95" cy="1378.7547" fill="#84BE84" rx="3" ry="3" style="stroke:#038048;stroke-width:1;"/><text fill="#000000" font-family="sans-serif" font-size="14" lengthAdjust="spacing" textLength="191.4951" x="123.95" y="1382.1014">verifyPassword(string) bool</text><ellipse cx="114.95" cy="1395.0516" fill="#84BE84" rx="3" ry="3" style="stroke:#038048;stroke-width:1;"/><text fill="#000000" font-family="sans-serif" font-size="14" lengthAdjust="spacing" textLength="111.3984" x="123.95" y="1398.3982">toString() string</text></g><!--class Question--><g class="entity" data-entity="Question" data-source-line="20" data-uid="ent0003" id="entity_Question"><rect fill="#F1F1F1" height="341.3438" rx="2.5" ry="2.5" style="stroke:#181818;stroke-width:0.5;" width="232.9238" x="419.4" y="695.61"/><ellipse cx="500.3033" cy="711.61" fill="#ADD1B2" rx="11" ry="11" style="stroke:#181818;stroke-width:1;"/><path d="M503.2721,717.2506 Q502.6939,717.5475 502.0533,717.6881 Q501.4127,717.8444 500.7096,717.8444 Q498.2096,717.8444 496.8814,716.2038 Q495.5689,714.5475 495.5689,711.4225 Q495.5689,708.2975 496.8814,706.6413 Q498.2096,704.985 500.7096,704.985 Q501.4127,704.985 502.0533,705.1413 Q502.7096,705.2975 503.2721,705.5944 L503.2721,708.3131 Q502.6471,707.735 502.0533,707.4694 Q501.4596,707.1881 500.8346,707.1881 Q499.4908,707.1881 498.8033,708.2663 Q498.1158,709.3288 498.1158,711.4225 Q498.1158,713.5163 498.8033,714.5944 Q499.4908,715.6569 500.8346,715.6569 Q501.4596,715.6569 502.0533,715.3913 Q502.6471,715.11 503.2721,714.5319 L503.2721,717.2506 Z " fill="#000000"/><text fill="#000000" font-family="sans-serif" font-size="14" lengthAdjust="spacing" textLength="62.6172" x="520.8033" y="716.4567">Question</text><line style="stroke:#181818;stroke-width:0.5;" x1="420.4" x2="651.3238" y1="727.61" y2="727.61"/><rect fill="none" height="6" style="stroke:#C82930;stroke-width:1;" width="6" x="427.4" y="738.2584"/><text fill="#000000" font-family="sans-serif" font-size="14" lengthAdjust="spacing" textLength="35.4785" x="439.4" y="744.6051">int id</text><rect fill="none" height="6" style="stroke:#C82930;stroke-width:1;" width="6" x="427.4" y="754.5553"/><text fill="#000000" font-family="sans-serif" font-size="14" lengthAdjust="spacing" textLength="88.6758" x="439.4" y="760.902">int parent_id</text><rect fill="none" height="6" style="stroke:#C82930;stroke-width:1;" width="6" x="427.4" y="770.8522"/><text fill="#000000" font-family="sans-serif" font-size="14" lengthAdjust="spacing" textLength="112.9023" x="439.4" y="777.1989">int from_user_id</text><rect fill="none" height="6" style="stroke:#C82930;stroke-width:1;" width="6" x="427.4" y="787.1491"/><text fill="#000000" font-family="sans-serif" font-size="14" lengthAdjust="spacing" textLength="94.0693" x="439.4" y="793.4957">int to_user_id</text><rect fill="none" height="6" style="stroke:#C82930;stroke-width:1;" width="6" x="427.4" y="803.4459"/><text fill="#000000" font-family="sans-serif" font-size="14" lengthAdjust="spacing" textLength="134.0869" x="439.4" y="809.7926">bool is_anonymous</text><rect fill="none" height="6" style="stroke:#C82930;stroke-width:1;" width="6" x="427.4" y="819.7428"/><text fill="#000000" font-family="sans-serif" font-size="14" lengthAdjust="spacing" textLength="72.5156" x="439.4" y="826.0895">string text</text><rect fill="none" height="6" style="stroke:#C82930;stroke-width:1;" width="6" x="427.4" y="836.0397"/><text fill="#000000" font-family="sans-serif" font-size="14" lengthAdjust="spacing" textLength="95.2041" x="439.4" y="842.3864">string answer</text><line style="stroke:#181818;stroke-width:0.5;" x1="420.4" x2="651.3238" y1="849.6881" y2="849.6881"/><ellipse cx="430.4" cy="863.3366" fill="#84BE84" rx="3" ry="3" style="stroke:#038048;stroke-width:1;"/><text fill="#000000" font-family="sans-serif" font-size="14" lengthAdjust="spacing" textLength="69.6309" x="439.4" y="866.6832">getId() int</text><ellipse cx="430.4" cy="879.6334" fill="#84BE84" rx="3" ry="3" style="stroke:#038048;stroke-width:1;"/><text fill="#000000" font-family="sans-serif" font-size="14" lengthAdjust="spacing" textLength="115.3838" x="439.4" y="882.9801">getParentId() int</text><ellipse cx="430.4" cy="895.9303" fill="#84BE84" rx="3" ry="3" style="stroke:#038048;stroke-width:1;"/><text fill="#000000" font-family="sans-serif" font-size="14" lengthAdjust="spacing" textLength="137.5527" x="439.4" y="899.277">getFromUserId() int</text><ellipse cx="430.4" cy="912.2272" fill="#84BE84" rx="3" ry="3" style="stroke:#038048;stroke-width:1;"/><text fill="#000000" font-family="sans-serif" font-size="14" lengthAdjust="spacing" textLength="118.6582" x="439.4" y="915.5739">getToUserId() int</text><ellipse cx="430.4" cy="928.5241" fill="#84BE84" rx="3" ry="3" style="stroke:#038048;stroke-width:1;"/><text fill="#000000" font-family="sans-serif" font-size="14" lengthAdjust="spacing" textLength="162.2373" x="439.4" y="931.8707">getIsAnonymous() bool</text><ellipse cx="430.4" cy="944.8209" fill="#84BE84" rx="3" ry="3" style="stroke:#038048;stroke-width:1;"/><text fill="#000000" font-family="sans-serif" font-size="14" lengthAdjust="spacing" textLength="109.4912" x="439.4" y="948.1676">getText() string</text><ellipse cx="430.4" cy="961.1178" fill="#84BE84" rx="3" ry="3" style="stroke:#038048;stroke-width:1;"/><text fill="#000000" font-family="sans-serif" font-size="14" lengthAdjust="spacing" textLength="130.1152" x="439.4" y="964.4645">getAnswer() string</text><ellipse cx="430.4" cy="977.4147" fill="#84BE84" rx="3" ry="3" style="stroke:#038048;stroke-width:1;"/><text fill="#000000" font-family="sans-serif" font-size="14" lengthAdjust="spacing" textLength="124.0723" x="439.4" y="980.7614">setAnswer(string)</text><ellipse cx="430.4" cy="993.7116" fill="#84BE84" rx="3" ry="3" style="stroke:#038048;stroke-width:1;"/><text fill="#000000" font-family="sans-serif" font-size="14" lengthAdjust="spacing" textLength="125.5283" x="439.4" y="997.0582">isAnswered() bool</text><ellipse cx="430.4" cy="1010.0084" fill="#84BE84" rx="3" ry="3" style="stroke:#038048;stroke-width:1;"/><text fill="#000000" font-family="sans-serif" font-size="14" lengthAdjust="spacing" textLength="111.3984" x="439.4" y="1013.3551">toString() string</text><rect fill="#F24D5C" height="6" style="stroke:#C82930;stroke-width:1;" width="6" x="427.4" y="1023.3053"/><text fill="#000000" font-family="sans-serif" font-size="14" lengthAdjust="spacing" textLength="206.9238" x="439.4" y="1029.652">escapeCommas(string) string</text></g><!--class FileManager--><g class="entity" data-entity="FileManager" data-source-line="41" data-uid="ent0004" id="entity_FileManager"><rect fill="#F1F1F1" height="210.9688" rx="2.5" ry="2.5" style="stroke:#181818;stroke-width:0.5;" width="399.7139" x="472.01" y="1145.84"/><ellipse cx="624.7112" cy="1161.84" fill="#ADD1B2" rx="11" ry="11" style="stroke:#181818;stroke-width:1;"/><path d="M627.6799,1167.4806 Q627.1018,1167.7775 626.4612,1167.9181 Q625.8205,1168.0744 625.1174,1168.0744 Q622.6174,1168.0744 621.2893,1166.4338 Q619.9768,1164.7775 619.9768,1161.6525 Q619.9768,1158.5275 621.2893,1156.8713 Q622.6174,1155.215 625.1174,1155.215 Q625.8205,1155.215 626.4612,1155.3713 Q627.1174,1155.5275 627.6799,1155.8244 L627.6799,1158.5431 Q627.0549,1157.965 626.4612,1157.6994 Q625.8674,1157.4181 625.2424,1157.4181 Q623.8987,1157.4181 623.2112,1158.4963 Q622.5237,1159.5588 622.5237,1161.6525 Q622.5237,1163.7463 623.2112,1164.8244 Q623.8987,1165.8869 625.2424,1165.8869 Q625.8674,1165.8869 626.4612,1165.6213 Q627.0549,1165.34 627.6799,1164.7619 L627.6799,1167.4806 Z " fill="#000000"/><text fill="#000000" font-family="sans-serif" font-size="14" lengthAdjust="spacing" textLength="85.8115" x="645.2112" y="1166.6867">FileManager</text><line style="stroke:#181818;stroke-width:0.5;" x1="473.01" x2="870.7239" y1="1177.84" y2="1177.84"/><rect fill="none" height="6" style="stroke:#C82930;stroke-width:1;" width="6" x="480.01" y="1188.4884"/><text fill="#000000" font-family="sans-serif" font-size="14" lengthAdjust="spacing" textLength="149.6182" x="492.01" y="1194.8351">string users_file_path</text><rect fill="none" height="6" style="stroke:#C82930;stroke-width:1;" width="6" x="480.01" y="1204.7853"/><text fill="#000000" font-family="sans-serif" font-size="14" lengthAdjust="spacing" textLength="179.5664" x="492.01" y="1211.132">string questions_file_path</text><line style="stroke:#181818;stroke-width:0.5;" x1="473.01" x2="870.7239" y1="1218.4338" y2="1218.4338"/><ellipse cx="483.01" cy="1232.0822" fill="#84BE84" rx="3" ry="3" style="stroke:#038048;stroke-width:1;"/><text fill="#000000" font-family="sans-serif" font-size="14" lengthAdjust="spacing" textLength="186.0127" x="492.01" y="1235.4289">FileManager(string, string)</text><ellipse cx="483.01" cy="1248.3791" fill="#84BE84" rx="3" ry="3" style="stroke:#038048;stroke-width:1;"/><text fill="#000000" font-family="sans-serif" font-size="14" lengthAdjust="spacing" textLength="341.168" x="492.01" y="1251.7257">ReadInformationFromFile(string) vector&lt;string&gt;</text><ellipse cx="483.01" cy="1264.6759" fill="#84BE84" rx="3" ry="3" style="stroke:#038048;stroke-width:1;"/><text fill="#000000" font-family="sans-serif" font-size="14" lengthAdjust="spacing" textLength="365.3604" x="492.01" y="1268.0226">StoreInformationOnFile(string, vector&lt;string&gt;) bool</text><ellipse cx="483.01" cy="1280.9728" fill="#84BE84" rx="3" ry="3" style="stroke:#038048;stroke-width:1;"/><text fill="#000000" font-family="sans-serif" font-size="14" lengthAdjust="spacing" textLength="281.8594" x="492.01" y="1284.3195">LoadUsers() unordered_map&lt;int, User&gt;</text><ellipse cx="483.01" cy="1297.2697" fill="#84BE84" rx="3" ry="3" style="stroke:#038048;stroke-width:1;"/><text fill="#000000" font-family="sans-serif" font-size="14" lengthAdjust="spacing" textLength="343.2734" x="492.01" y="1300.6164">LoadQuestions() unordered_map&lt;int, Question&gt;</text><ellipse cx="483.01" cy="1313.5666" fill="#84BE84" rx="3" ry="3" style="stroke:#038048;stroke-width:1;"/><text fill="#000000" font-family="sans-serif" font-size="14" lengthAdjust="spacing" textLength="312.2998" x="492.01" y="1316.9132">SaveUsers(unordered_map&lt;int, User&gt;) bool</text><ellipse cx="483.01" cy="1329.8634" fill="#84BE84" rx="3" ry="3" style="stroke:#038048;stroke-width:1;"/><text fill="#000000" font-family="sans-serif" font-size="14" lengthAdjust="spacing" textLength="373.7139" x="492.01" y="1333.2101">SaveQuestions(unordered_map&lt;int, Question&gt;) bool</text><rect fill="#F24D5C" height="6" style="stroke:#C82930;stroke-width:1;" width="6" x="480.01" y="1343.1603"/><text fill="#000000" font-family="sans-serif" font-size="14" lengthAdjust="spacing" textLength="232.873" x="492.01" y="1349.507">split(string, char) vector&lt;string&gt;</text></g><!--class AuthService--><g class="entity" data-entity="AuthService" data-source-line="54" data-uid="ent0005" id="entity_AuthService"><rect fill="#F1F1F1" height="227.2656" rx="2.5" ry="2.5" style="stroke:#181818;stroke-width:0.5;" width="261.7305" x="7" y="367.6"/><ellipse cx="91.3384" cy="383.6" fill="#ADD1B2" rx="11" ry="11" style="stroke:#181818;stroke-width:1;"/><path d="M94.3071,389.2406 Q93.729,389.5375 93.0884,389.6781 Q92.4478,389.8344 91.7446,389.8344 Q89.2446,389.8344 87.9165,388.1938 Q86.604,386.5375 86.604,383.4125 Q86.604,380.2875 87.9165,378.6313 Q89.2446,376.975 91.7446,376.975 Q92.4478,376.975 93.0884,377.1313 Q93.7446,377.2875 94.3071,377.5844 L94.3071,380.3031 Q93.6821,379.725 93.0884,379.4594 Q92.4946,379.1781 91.8696,379.1781 Q90.5259,379.1781 89.8384,380.2563 Q89.1509,381.3188 89.1509,383.4125 Q89.1509,385.5063 89.8384,386.5844 Q90.5259,387.6469 91.8696,387.6469 Q92.4946,387.6469 93.0884,387.3813 Q93.6821,387.1 94.3071,386.5219 L94.3071,389.2406 Z " fill="#000000"/><text fill="#000000" font-family="sans-serif" font-size="14" lengthAdjust="spacing" textLength="84.5537" x="111.8384" y="388.4467">AuthService</text><line style="stroke:#181818;stroke-width:0.5;" x1="8" x2="267.7305" y1="399.6" y2="399.6"/><rect fill="none" height="6" style="stroke:#C82930;stroke-width:1;" width="6" x="15" y="410.2484"/><text fill="#000000" font-family="sans-serif" font-size="14" lengthAdjust="spacing" textLength="235.7305" x="27" y="416.5951">unordered_map&lt;int, User&gt; users</text><rect fill="none" height="6" style="stroke:#C82930;stroke-width:1;" width="6" x="15" y="426.5453"/><text fill="#000000" font-family="sans-serif" font-size="14" lengthAdjust="spacing" textLength="209.1045" x="27" y="432.892">UserManager&amp; user_manager</text><rect fill="none" height="6" style="stroke:#C82930;stroke-width:1;" width="6" x="15" y="442.8422"/><text fill="#000000" font-family="sans-serif" font-size="14" lengthAdjust="spacing" textLength="181.5078" x="27" y="449.1889">FileManager file_manager</text><rect fill="none" height="6" style="stroke:#C82930;stroke-width:1;" width="6" x="15" y="459.1391"/><text fill="#000000" font-family="sans-serif" font-size="14" lengthAdjust="spacing" textLength="124.9541" x="27" y="465.4857">User current_user</text><rect fill="none" height="6" style="stroke:#C82930;stroke-width:1;" width="6" x="15" y="475.4359"/><text fill="#000000" font-family="sans-serif" font-size="14" lengthAdjust="spacing" textLength="120.0322" x="27" y="481.7826">bool is_logged_in</text><line style="stroke:#181818;stroke-width:0.5;" x1="8" x2="267.7305" y1="489.0844" y2="489.0844"/><ellipse cx="18" cy="502.7328" fill="#84BE84" rx="3" ry="3" style="stroke:#038048;stroke-width:1;"/><text fill="#000000" font-family="sans-serif" font-size="14" lengthAdjust="spacing" textLength="199.6709" x="27" y="506.0795">AuthService(UserManager&amp;)</text><ellipse cx="18" cy="519.0297" fill="#84BE84" rx="3" ry="3" style="stroke:#038048;stroke-width:1;"/><text fill="#000000" font-family="sans-serif" font-size="14" lengthAdjust="spacing" textLength="48.9385" x="27" y="522.3764">Login()</text><ellipse cx="18" cy="535.3266" fill="#84BE84" rx="3" ry="3" style="stroke:#038048;stroke-width:1;"/><text fill="#000000" font-family="sans-serif" font-size="14" lengthAdjust="spacing" textLength="60.5938" x="27" y="538.6732">SignUp()</text><ellipse cx="18" cy="551.6234" fill="#84BE84" rx="3" ry="3" style="stroke:#038048;stroke-width:1;"/><text fill="#000000" font-family="sans-serif" font-size="14" lengthAdjust="spacing" textLength="157.2813" x="27" y="554.9701">GetCurrentUser() User</text><ellipse cx="18" cy="567.9203" fill="#84BE84" rx="3" ry="3" style="stroke:#038048;stroke-width:1;"/><text fill="#000000" font-family="sans-serif" font-size="14" lengthAdjust="spacing" textLength="121.3447" x="27" y="571.267">IsLoggedIn() bool</text><ellipse cx="18" cy="584.2172" fill="#84BE84" rx="3" ry="3" style="stroke:#038048;stroke-width:1;"/><text fill="#000000" font-family="sans-serif" font-size="14" lengthAdjust="spacing" textLength="59.1035" x="27" y="587.5639">Logout()</text></g><!--class QuestionManager--><g class="entity" data-entity="QuestionManager" data-source-line="68" data-uid="ent0006" id="entity_QuestionManager"><rect fill="#F1F1F1" height="308.75" rx="2.5" ry="2.5" style="stroke:#181818;stroke-width:0.5;" width="322.3857" x="374.67" y="326.86"/><ellipse cx="469.6212" cy="342.86" fill="#ADD1B2" rx="11" ry="11" style="stroke:#181818;stroke-width:1;"/><path d="M472.5899,348.5006 Q472.0118,348.7975 471.3712,348.9381 Q470.7305,349.0944 470.0274,349.0944 Q467.5274,349.0944 466.1993,347.4538 Q464.8868,345.7975 464.8868,342.6725 Q464.8868,339.5475 466.1993,337.8913 Q467.5274,336.235 470.0274,336.235 Q470.7305,336.235 471.3712,336.3913 Q472.0274,336.5475 472.5899,336.8444 L472.5899,339.5631 Q471.9649,338.985 471.3712,338.7194 Q470.7774,338.4381 470.1524,338.4381 Q468.8087,338.4381 468.1212,339.5163 Q467.4337,340.5788 467.4337,342.6725 Q467.4337,344.7663 468.1212,345.8444 Q468.8087,346.9069 470.1524,346.9069 Q470.7774,346.9069 471.3712,346.6413 Q471.9649,346.36 472.5899,345.7819 L472.5899,348.5006 Z " fill="#000000"/><text fill="#000000" font-family="sans-serif" font-size="14" lengthAdjust="spacing" textLength="123.9834" x="490.1212" y="347.7067">QuestionManager</text><line style="stroke:#181818;stroke-width:0.5;" x1="375.67" x2="696.0557" y1="358.86" y2="358.86"/><rect fill="none" height="6" style="stroke:#C82930;stroke-width:1;" width="6" x="382.67" y="369.5084"/><text fill="#000000" font-family="sans-serif" font-size="14" lengthAdjust="spacing" textLength="296.3857" x="394.67" y="375.8551">unordered_map&lt;int, Question&gt; questions</text><rect fill="none" height="6" style="stroke:#C82930;stroke-width:1;" width="6" x="382.67" y="385.8053"/><text fill="#000000" font-family="sans-serif" font-size="14" lengthAdjust="spacing" textLength="209.1045" x="394.67" y="392.152">UserManager&amp; user_manager</text><rect fill="none" height="6" style="stroke:#C82930;stroke-width:1;" width="6" x="382.67" y="402.1022"/><text fill="#000000" font-family="sans-serif" font-size="14" lengthAdjust="spacing" textLength="181.5078" x="394.67" y="408.4489">FileManager file_manager</text><line style="stroke:#181818;stroke-width:0.5;" x1="375.67" x2="696.0557" y1="415.7506" y2="415.7506"/><ellipse cx="385.67" cy="429.3991" fill="#84BE84" rx="3" ry="3" style="stroke:#038048;stroke-width:1;"/><text fill="#000000" font-family="sans-serif" font-size="14" lengthAdjust="spacing" textLength="239.1006" x="394.67" y="432.7457">QuestionManager(UserManager&amp;)</text><ellipse cx="385.67" cy="445.6959" fill="#84BE84" rx="3" ry="3" style="stroke:#038048;stroke-width:1;"/><text fill="#000000" font-family="sans-serif" font-size="14" lengthAdjust="spacing" textLength="168.9639" x="394.67" y="449.0426">GetNextQuestionID() int</text><ellipse cx="385.67" cy="461.9928" fill="#84BE84" rx="3" ry="3" style="stroke:#038048;stroke-width:1;"/><text fill="#000000" font-family="sans-serif" font-size="14" lengthAdjust="spacing" textLength="197.8662" x="394.67" y="465.3395">AddQuestion(Question) bool</text><ellipse cx="385.67" cy="478.2897" fill="#84BE84" rx="3" ry="3" style="stroke:#038048;stroke-width:1;"/><text fill="#000000" font-family="sans-serif" font-size="14" lengthAdjust="spacing" textLength="221.2178" x="394.67" y="481.6364">UpdateQuestion(Question) bool</text><ellipse cx="385.67" cy="494.5866" fill="#84BE84" rx="3" ry="3" style="stroke:#038048;stroke-width:1;"/><text fill="#000000" font-family="sans-serif" font-size="14" lengthAdjust="spacing" textLength="130.4297" x="394.67" y="497.9332">AskQuestion(User)</text><ellipse cx="385.67" cy="510.8834" fill="#84BE84" rx="3" ry="3" style="stroke:#038048;stroke-width:1;"/><text fill="#000000" font-family="sans-serif" font-size="14" lengthAdjust="spacing" textLength="143.3564" x="394.67" y="514.2301">AnswerQuestion(int)</text><ellipse cx="385.67" cy="527.1803" fill="#84BE84" rx="3" ry="3" style="stroke:#038048;stroke-width:1;"/><text fill="#000000" font-family="sans-serif" font-size="14" lengthAdjust="spacing" textLength="180.5645" x="394.67" y="530.527">PrintQuestionsToUser(int)</text><ellipse cx="385.67" cy="543.4772" fill="#84BE84" rx="3" ry="3" style="stroke:#038048;stroke-width:1;"/><text fill="#000000" font-family="sans-serif" font-size="14" lengthAdjust="spacing" textLength="199.459" x="394.67" y="546.8239">PrintQuestionsFromUser(int)</text><ellipse cx="385.67" cy="559.7741" fill="#84BE84" rx="3" ry="3" style="stroke:#038048;stroke-width:1;"/><text fill="#000000" font-family="sans-serif" font-size="14" lengthAdjust="spacing" textLength="155.0459" x="394.67" y="563.1207">GetThreadQuestions()</text><ellipse cx="385.67" cy="576.0709" fill="#84BE84" rx="3" ry="3" style="stroke:#038048;stroke-width:1;"/><text fill="#000000" font-family="sans-serif" font-size="14" lengthAdjust="spacing" textLength="101.9512" x="394.67" y="579.4176">GetFeed(User)</text><ellipse cx="385.67" cy="592.3678" fill="#84BE84" rx="3" ry="3" style="stroke:#038048;stroke-width:1;"/><text fill="#000000" font-family="sans-serif" font-size="14" lengthAdjust="spacing" textLength="212.96" x="394.67" y="595.7145">DeleteQuestion(int, User) bool</text><ellipse cx="385.67" cy="608.6647" fill="#84BE84" rx="3" ry="3" style="stroke:#038048;stroke-width:1;"/><text fill="#000000" font-family="sans-serif" font-size="14" lengthAdjust="spacing" textLength="235.1563" x="394.67" y="612.0114">DeleteThreadQuestions(int, User)</text><rect fill="#F24D5C" height="6" style="stroke:#C82930;stroke-width:1;" width="6" x="382.67" y="621.9616"/><text fill="#000000" font-family="sans-serif" font-size="14" lengthAdjust="spacing" textLength="207.416" x="394.67" y="628.3082">PrintQuestion(Question, bool)</text></g><!--class UserManager--><g class="entity" data-entity="UserManager" data-source-line="87" data-uid="ent0007" id="entity_UserManager"><rect fill="#F1F1F1" height="227.2656" rx="2.5" ry="2.5" style="stroke:#181818;stroke-width:0.5;" width="261.7305" x="123" y="752.65"/><ellipse cx="202.9771" cy="768.65" fill="#ADD1B2" rx="11" ry="11" style="stroke:#181818;stroke-width:1;"/><path d="M205.9458,774.2906 Q205.3677,774.5875 204.7271,774.7281 Q204.0864,774.8844 203.3833,774.8844 Q200.8833,774.8844 199.5552,773.2438 Q198.2427,771.5875 198.2427,768.4625 Q198.2427,765.3375 199.5552,763.6813 Q200.8833,762.025 203.3833,762.025 Q204.0864,762.025 204.7271,762.1813 Q205.3833,762.3375 205.9458,762.6344 L205.9458,765.3531 Q205.3208,764.775 204.7271,764.5094 Q204.1333,764.2281 203.5083,764.2281 Q202.1646,764.2281 201.4771,765.3063 Q200.7896,766.3688 200.7896,768.4625 Q200.7896,770.5563 201.4771,771.6344 Q202.1646,772.6969 203.5083,772.6969 Q204.1333,772.6969 204.7271,772.4313 Q205.3208,772.15 205.9458,771.5719 L205.9458,774.2906 Z " fill="#000000"/><text fill="#000000" font-family="sans-serif" font-size="14" lengthAdjust="spacing" textLength="93.2764" x="223.4771" y="773.4967">UserManager</text><line style="stroke:#181818;stroke-width:0.5;" x1="124" x2="383.7305" y1="784.65" y2="784.65"/><rect fill="none" height="6" style="stroke:#C82930;stroke-width:1;" width="6" x="131" y="795.2984"/><text fill="#000000" font-family="sans-serif" font-size="14" lengthAdjust="spacing" textLength="235.7305" x="143" y="801.6451">unordered_map&lt;int, User&gt; users</text><rect fill="none" height="6" style="stroke:#C82930;stroke-width:1;" width="6" x="131" y="811.5953"/><text fill="#000000" font-family="sans-serif" font-size="14" lengthAdjust="spacing" textLength="181.5078" x="143" y="817.942">FileManager file_manager</text><line style="stroke:#181818;stroke-width:0.5;" x1="124" x2="383.7305" y1="825.2438" y2="825.2438"/><ellipse cx="134" cy="838.8922" fill="#84BE84" rx="3" ry="3" style="stroke:#038048;stroke-width:1;"/><text fill="#000000" font-family="sans-serif" font-size="14" lengthAdjust="spacing" textLength="104.2002" x="143" y="842.2389">UserManager()</text><ellipse cx="134" cy="855.1891" fill="#84BE84" rx="3" ry="3" style="stroke:#038048;stroke-width:1;"/><text fill="#000000" font-family="sans-serif" font-size="14" lengthAdjust="spacing" textLength="200.9287" x="143" y="858.5357">UserManager(FileManager&amp;)</text><ellipse cx="134" cy="871.4859" fill="#84BE84" rx="3" ry="3" style="stroke:#038048;stroke-width:1;"/><text fill="#000000" font-family="sans-serif" font-size="14" lengthAdjust="spacing" textLength="126.8066" x="143" y="874.8326">ListSystemUsers()</text><ellipse cx="134" cy="887.7828" fill="#84BE84" rx="3" ry="3" style="stroke:#038048;stroke-width:1;"/><text fill="#000000" font-family="sans-serif" font-size="14" lengthAdjust="spacing" textLength="159.8037" x="143" y="891.1295">UpdateUser(User) bool</text><ellipse cx="134" cy="904.0797" fill="#84BE84" rx="3" ry="3" style="stroke:#038048;stroke-width:1;"/><text fill="#000000" font-family="sans-serif" font-size="14" lengthAdjust="spacing" textLength="166.1133" x="143" y="907.4264">GetUserByID(int) User&amp;</text><ellipse cx="134" cy="920.3766" fill="#84BE84" rx="3" ry="3" style="stroke:#038048;stroke-width:1;"/><text fill="#000000" font-family="sans-serif" font-size="14" lengthAdjust="spacing" textLength="136.4521" x="143" y="923.7232">AddUser(User) bool</text><ellipse cx="134" cy="936.6734" fill="#84BE84" rx="3" ry="3" style="stroke:#038048;stroke-width:1;"/><text fill="#000000" font-family="sans-serif" font-size="14" lengthAdjust="spacing" textLength="138.2568" x="143" y="940.0201">GetNextUserID() int</text><ellipse cx="134" cy="952.9703" fill="#84BE84" rx="3" ry="3" style="stroke:#038048;stroke-width:1;"/><text fill="#000000" font-family="sans-serif" font-size="14" lengthAdjust="spacing" textLength="141.4424" x="143" y="956.317">DeleteUser(int) bool</text><ellipse cx="134" cy="969.2672" fill="#84BE84" rx="3" ry="3" style="stroke:#038048;stroke-width:1;"/><text fill="#000000" font-family="sans-serif" font-size="14" lengthAdjust="spacing" textLength="202.6787" x="143" y="972.6139">Authenticate(int, string) bool</text></g><!--class AskMeSystem--><g class="entity" data-entity="AskMeSystem" data-source-line="101" data-uid="ent0008" id="entity_AskMeSystem"><rect fill="#F1F1F1" height="259.8594" rx="2.5" ry="2.5" style="stroke:#181818;stroke-width:0.5;" width="284.8428" x="179.44" y="7"/><ellipse cx="268.6729" cy="23" fill="#ADD1B2" rx="11" ry="11" style="stroke:#181818;stroke-width:1;"/><path d="M271.6417,28.6406 Q271.0635,28.9375 270.4229,29.0781 Q269.7823,29.2344 269.0792,29.2344 Q266.5792,29.2344 265.251,27.5938 Q263.9385,25.9375 263.9385,22.8125 Q263.9385,19.6875 265.251,18.0313 Q266.5792,16.375 269.0792,16.375 Q269.7823,16.375 270.4229,16.5313 Q271.0792,16.6875 271.6417,16.9844 L271.6417,19.7031 Q271.0167,19.125 270.4229,18.8594 Q269.8292,18.5781 269.2042,18.5781 Q267.8604,18.5781 267.1729,19.6563 Q266.4854,20.7188 266.4854,22.8125 Q266.4854,24.9063 267.1729,25.9844 Q267.8604,27.0469 269.2042,27.0469 Q269.8292,27.0469 270.4229,26.7813 Q271.0167,26.5 271.6417,25.9219 L271.6417,28.6406 Z " fill="#000000"/><text fill="#000000" font-family="sans-serif" font-size="14" lengthAdjust="spacing" textLength="97.877" x="289.1729" y="27.8467">AskMeSystem</text><line style="stroke:#181818;stroke-width:0.5;" x1="180.44" x2="463.2828" y1="39" y2="39"/><rect fill="none" height="6" style="stroke:#C82930;stroke-width:1;" width="6" x="187.44" y="49.6484"/><text fill="#000000" font-family="sans-serif" font-size="14" lengthAdjust="spacing" textLength="177.9668" x="199.44" y="55.9951">AuthService auth_service</text><rect fill="none" height="6" style="stroke:#C82930;stroke-width:1;" width="6" x="187.44" y="65.9453"/><text fill="#000000" font-family="sans-serif" font-size="14" lengthAdjust="spacing" textLength="198.1875" x="199.44" y="72.292">UserManager user_manager</text><rect fill="none" height="6" style="stroke:#C82930;stroke-width:1;" width="6" x="187.44" y="82.2422"/><text fill="#000000" font-family="sans-serif" font-size="14" lengthAdjust="spacing" textLength="258.8428" x="199.44" y="88.5889">QuestionManager question_manager</text><line style="stroke:#181818;stroke-width:0.5;" x1="180.44" x2="463.2828" y1="95.8906" y2="95.8906"/><ellipse cx="190.44" cy="109.5391" fill="#84BE84" rx="3" ry="3" style="stroke:#038048;stroke-width:1;"/><text fill="#000000" font-family="sans-serif" font-size="14" lengthAdjust="spacing" textLength="108.8008" x="199.44" y="112.8857">AskMeSystem()</text><ellipse cx="190.44" cy="125.8359" fill="#84BE84" rx="3" ry="3" style="stroke:#038048;stroke-width:1;"/><text fill="#000000" font-family="sans-serif" font-size="14" lengthAdjust="spacing" textLength="38.3975" x="199.44" y="129.1826">Run()</text><rect fill="#F24D5C" height="6" style="stroke:#C82930;stroke-width:1;" width="6" x="187.44" y="139.1328"/><text fill="#000000" font-family="sans-serif" font-size="14" lengthAdjust="spacing" textLength="134.5381" x="199.44" y="145.4795">PrintHeader(string)</text><rect fill="#F24D5C" height="6" style="stroke:#C82930;stroke-width:1;" width="6" x="187.44" y="155.4297"/><text fill="#000000" font-family="sans-serif" font-size="14" lengthAdjust="spacing" textLength="203.0615" x="199.44" y="161.7764">centerAlign(string, int) string</text><rect fill="#F24D5C" height="6" style="stroke:#C82930;stroke-width:1;" width="6" x="187.44" y="171.7266"/><text fill="#000000" font-family="sans-serif" font-size="14" lengthAdjust="spacing" textLength="195.877" x="199.44" y="178.0732">PrintMenuOption(int, string)</text><rect fill="#F24D5C" height="6" style="stroke:#C82930;stroke-width:1;" width="6" x="187.44" y="188.0234"/><text fill="#000000" font-family="sans-serif" font-size="14" lengthAdjust="spacing" textLength="93.4746" x="199.44" y="194.3701">PrintDivider()</text><rect fill="#F24D5C" height="6" style="stroke:#C82930;stroke-width:1;" width="6" x="187.44" y="204.3203"/><text fill="#000000" font-family="sans-serif" font-size="14" lengthAdjust="spacing" textLength="88.416" x="199.44" y="210.667">PrintFooter()</text><rect fill="#F24D5C" height="6" style="stroke:#C82930;stroke-width:1;" width="6" x="187.44" y="220.6172"/><text fill="#000000" font-family="sans-serif" font-size="14" lengthAdjust="spacing" textLength="120.5586" x="199.44" y="226.9639">ShowMainMenu()</text><rect fill="#F24D5C" height="6" style="stroke:#C82930;stroke-width:1;" width="6" x="187.44" y="236.9141"/><text fill="#000000" font-family="sans-serif" font-size="14" lengthAdjust="spacing" textLength="150.958" x="199.44" y="243.2607">ShowUserMenu(User)</text><rect fill="#F24D5C" height="6" style="stroke:#C82930;stroke-width:1;" width="6" x="187.44" y="253.2109"/><text fill="#000000" font-family="sans-serif" font-size="14" lengthAdjust="spacing" textLength="163.9121" x="199.44" y="259.5576">ShowAdminMenu(User)</text></g><!--reverse link AskMeSystem to AuthService--><g class="link" data-entity-1="AskMeSystem" data-entity-2="AuthService" data-source-line="117" data-uid="lnk9" id="link_AskMeSystem_AuthService"><path codeLine="117" d="M246.6204,277.9108 C228.9704,310.7608 215.81,335.22 198.63,367.18" fill="none" id="AskMeSystem-backto-AuthService" style="stroke:#181818;stroke-width:1;"/><polygon fill="#181818" points="252.3,267.34,245.9366,270.7322,246.6204,277.9108,252.9838,274.5186,252.3,267.34" style="stroke:#181818;stroke-width:1;"/></g><!--reverse link AskMeSystem to UserManager--><g class="link" data-entity-1="AskMeSystem" data-entity-2="UserManager" data-source-line="118" data-uid="lnk10" id="link_AskMeSystem_UserManager"><path codeLine="118" d="M314.1442,279.2686 C308.1342,379.8386 299.06,510.8 285.87,635.61 C281.84,673.64 276.4,715.07 271.14,752.15" fill="none" id="AskMeSystem-backto-UserManager" style="stroke:#181818;stroke-width:1;"/><polygon fill="#181818" points="314.86,267.29,310.5092,273.0407,314.1442,279.2686,318.495,273.5179,314.86,267.29" style="stroke:#181818;stroke-width:1;"/></g><!--reverse link AskMeSystem to QuestionManager--><g class="link" data-entity-1="AskMeSystem" data-entity-2="QuestionManager" data-source-line="119" data-uid="lnk11" id="link_AskMeSystem_QuestionManager"><path codeLine="119" d="M409.1305,277.5157 C421.2005,296.8257 427.39,306.71 439.74,326.47" fill="none" id="AskMeSystem-backto-QuestionManager" style="stroke:#181818;stroke-width:1;"/><polygon fill="#181818" points="402.77,267.34,402.5583,274.548,409.1305,277.5157,409.3421,270.3077,402.77,267.34" style="stroke:#181818;stroke-width:1;"/></g><!--link AuthService to UserManager--><g class="link" data-entity-1="AuthService" data-entity-2="UserManager" data-source-line="121" data-uid="lnk12" id="link_AuthService_UserManager"><path codeLine="121" d="M172.12,595.34 C187.12,644.88 202.9403,697.1278 217.9403,746.6378" fill="none" id="AuthService-to-UserManager" style="stroke:#181818;stroke-width:1;"/><polygon fill="#181818" points="219.68,752.38,220.8986,742.6068,218.2302,747.5948,213.2423,744.9264,219.68,752.38" style="stroke:#181818;stroke-width:1;"/></g><!--reverse link QuestionManager to Question--><g class="link" data-entity-1="QuestionManager" data-entity-2="Question" data-source-line="123" data-uid="lnk13" id="link_QuestionManager_Question"><path codeLine="123" d="M535.87,648.1 C535.87,667.55 535.87,675.54 535.87,695.22" fill="none" id="QuestionManager-backto-Question" style="stroke:#181818;stroke-width:1;"/><polygon fill="none" points="535.87,636.1,531.87,642.1,535.87,648.1,539.87,642.1,535.87,636.1" style="stroke:#181818;stroke-width:1;"/></g><!--link QuestionManager to UserManager--><g class="link" data-entity-1="QuestionManager" data-entity-2="UserManager" data-source-line="124" data-uid="lnk14" id="link_QuestionManager_UserManager"><path codeLine="124" d="M422.59,636.1 C394.03,674.89 367.4469,710.998 340.6669,747.378" fill="none" id="QuestionManager-to-UserManager" style="stroke:#181818;stroke-width:1;"/><polygon fill="#181818" points="337.11,752.21,345.6667,747.3333,340.0741,748.1833,339.2241,742.5907,337.11,752.21" style="stroke:#181818;stroke-width:1;"/></g><!--link QuestionManager to FileManager--><g class="link" data-entity-1="QuestionManager" data-entity-2="FileManager" data-source-line="125" data-uid="lnk15" id="link_QuestionManager_FileManager"><path codeLine="125" d="M645.92,635.98 C655.65,655.33 664.02,675.44 669.87,695.61 C713.81,847.19 703.0431,1026.055 689.0831,1139.455" fill="none" id="QuestionManager-to-FileManager" style="stroke:#181818;stroke-width:1;"/><polygon fill="#181818" points="688.35,1145.41,693.4197,1136.9662,688.9609,1140.4475,685.4796,1135.9887,688.35,1145.41" style="stroke:#181818;stroke-width:1;"/></g><!--reverse link UserManager to User--><g class="link" data-entity-1="UserManager" data-entity-2="User" data-source-line="127" data-uid="lnk16" id="link_UserManager_User"><path codeLine="127" d="M253.87,992.39 C253.87,1028.8 253.87,1057.77 253.87,1096.59" fill="none" id="UserManager-backto-User" style="stroke:#181818;stroke-width:1;"/><polygon fill="none" points="253.87,980.39,249.87,986.39,253.87,992.39,257.87,986.39,253.87,980.39" style="stroke:#181818;stroke-width:1;"/></g><!--link UserManager to FileManager--><g class="link" data-entity-1="UserManager" data-entity-2="FileManager" data-source-line="128" data-uid="lnk17" id="link_UserManager_FileManager"><path codeLine="128" d="M346.96,979.97 C364.59,999.56 383.33,1019.29 401.87,1036.95 C441.23,1074.45 482.0079,1108.5484 524.2979,1141.6984" fill="none" id="UserManager-to-FileManager" style="stroke:#181818;stroke-width:1;"/><polygon fill="#181818" points="529.02,1145.4,524.4045,1136.6996,525.0849,1142.3154,519.4691,1142.9958,529.02,1145.4" style="stroke:#181818;stroke-width:1;"/></g><!--SRC=[hLRRRjim37tVL-XfIDVa3ue2NjDq0PgsIvfdGxCLHwWjUPQSB2ZsxzF5LYXBpefXVKWJ7f8wuY5fPoKM0cq5QT3x9zJzpH1b4j4S68HiA2iGmnK9hRNASUHDnBzLYUCnfCAq1EOVd9S8boK_ffXnTgfuAzAVBH6ISYQ08s5jXTQy9EWT9VFLyccArlSFsyTadMutzslqs_bUeuB8PJwvqjVnhK-Aax9RBZwqxIYFmFUQzmYMQFf9p_vxJrvvwzlvlle62j3_0236a-WKLy3rG1gwExrqfPzOFi59acyCu3EsDJ8VcMc0_fZBJQ0DDMu8asbWtpMyIhNS8IHv131wKt4MEsmHINx9q8gPE9Bc8oA_6AfnRA7eQgNZw2iVnvR2YHCLzbMn7kiFGpq62WTsEWAC2WkHVF91URj14HckoHslAYnSUrngWWKjoGepN0oM0PXbaUwKKrfZkGyTtBH6dAvXzexD58MNNHESBzcEDnNMgRHCEj3nFv1CykR6_hm5WHjb9Y3ocO6uwI0kgECZnxcMN4lQCZLFkjnfXUiRfV_KxCVRWJiSxqX83tiSyO7OKyRE28ZfaFD9byuPX2fLwf9ALu1iZvje-O8sI5gvtv3cG3FYjS4OPziOm55REwK_6r05c5_01_QQwPRGnJoKihOn-qQdYMoFaXU58aGPA1dWFu5KhZm12yecqBAX1TlMdkc1o3jxl4wZPDuAR_4inQCvViacaOOgU2kxTAFhDZPjbpH6iGVYVodtzP3JQEbKLPxKYklTb_DWIIQv6uv9_oKeqBREiIH_zql4ctFIb20LknSTh5X0z4NrkACfx4g_xDC_58PUwigl-uPuC-_32wAsyv3Ud9G4ND5DJ717wpWyukmFXFG8kwfDqVdj86Ws8EI_pVC7cWUSuPK6sa4QVnQfa9kJaAJgDd3G9KQJQEKUxFlQrvDgGosQEV2ptuiNetKhcsTzsCPM5TSFGMEgDQDM0yqKGQjLy0eMhbRnjYBshfuKSELYzJqLzaTyoiU6VBXL-cKHqGiGyUgzRk5MxDhjcshBo9l936Ng_gH9IhKwtNF6b2fu5p5vLkhL_Ra-pqAOqBZDwO7cNXzrm89pER1lzloumfJfr05WIgQ1uH1fCCchBkoC0hsWKbzcda9H7CWJnGVQW8E0zBFPRP38V0oLvI1Zr26MAUO3Pl9y6cmrtjqj00RHVm00]--></g></svg>